<?xml version="1.0" standalone="no"?>
<!DOCTYPE svg PUBLIC "-//W3C//DTD SVG 20010904//EN"
 "http://www.w3.org/TR/2001/REC-SVG-20010904/DTD/svg10.dtd">
<svg version="1.0" xmlns="http://www.w3.org/2000/svg"
 width="729.594046pt" height="1550.175075pt" viewBox="0 0 729.594046 1550.175075"
 preserveAspectRatio="xMidYMid meet">
<metadata>
Created by Potrace Professional 1.1m
</metadata>
<g transform="translate(-70.321482,1575.814190) rotate(-360.00) scale(0.095238,-0.095238)"
fill="#000000" stroke="none">
<path d="M4746 16516 c-123 -65 -162 -82 -171 -77 -5 4 -24 -1 -43 -10 -18 -8
-54 -21 -80 -28 -26 -7 -71 -22 -100 -33 -29 -12 -62 -23 -74 -25 -36 -5 -86
-34 -125 -74 -37 -36 -38 -37 -82 -24 -24 7 -50 14 -56 14 -6 0 -20 7 -29 15
-26 21 -203 38 -268 25 -56 -11 -65 -8 -228 81 -29 16 -71 32 -94 36 -82 14
-263 27 -295 22 -32 -6 -33 -7 -32 -61 0 -30 2 -49 5 -42 5 16 34 18 34 3 0
-6 -10 -22 -22 -35 -30 -31 -72 -117 -73 -146 0 -13 -4 -30 -9 -38 -10 -17
-112 -64 -137 -64 -10 0 -31 -10 -45 -21 -15 -12 -30 -21 -34 -21 -4 0 -22
-12 -41 -27 -19 -14 -38 -26 -41 -26 -4 0 -48 -28 -99 -61 -51 -34 -105 -70
-121 -79 -16 -10 -32 -31 -35 -47 -4 -15 -17 -39 -30 -53 -18 -20 -23 -43 -29
-141 -19 -293 -28 -326 -108 -407 -44 -45 -57 -52 -130 -67 -80 -18 -232 -59
-311 -85 -23 -8 -59 -17 -79 -21 -52 -10 -178 -46 -215 -63 -18 -7 -44 -17
-58 -21 -35 -10 -107 -63 -98 -72 4 -3 0 -6 -9 -6 -8 0 -26 -12 -39 -26 -26
-27 -32 -82 -14 -118 6 -10 13 -40 17 -65 4 -25 15 -63 24 -84 9 -21 18 -48
19 -59 2 -12 15 -54 30 -95 15 -40 28 -80 28 -89 0 -9 7 -29 15 -45 9 -16 24
-58 33 -92 10 -35 31 -81 46 -102 33 -47 46 -76 32 -76 -6 0 -10 -11 -11 -26
0 -33 27 -50 200 -131 78 -36 161 -74 184 -85 23 -11 77 -35 121 -53 138 -58
142 -69 65 -182 -32 -47 -65 -93 -74 -103 -20 -24 -8 -37 19 -21 32 20 36 -5
8 -48 -14 -21 -42 -66 -61 -99 -20 -33 -42 -60 -49 -60 -7 0 -13 -4 -13 -8 0
-5 -36 -44 -80 -87 -43 -43 -86 -92 -95 -109 l-16 -30 35 26 c19 15 51 35 70
44 l35 18 -8 -24 c-4 -14 -19 -45 -33 -69 -14 -25 -21 -45 -16 -45 26 0 22
-36 -8 -72 -40 -48 -45 -108 -9 -99 20 6 22 3 16 -24 -4 -17 -13 -63 -19 -103
-11 -64 -10 -73 6 -82 15 -9 15 -13 -9 -42 -27 -31 -36 -71 -16 -71 16 0 12
-23 -10 -47 -26 -30 -46 -90 -29 -90 17 1 59 37 59 52 1 6 4 11 9 11 16 0 10
-36 -8 -58 -61 -71 -95 -251 -72 -375 6 -33 15 -58 19 -55 4 2 9 38 9 80 1 41
4 78 7 83 3 4 7 37 11 72 3 35 12 77 21 93 8 16 15 36 15 45 0 14 1 14 10 0 6
-9 8 -24 5 -34 -3 -10 2 -48 11 -83 9 -36 14 -67 12 -69 -2 -3 3 -32 12 -64 9
-33 16 -96 17 -139 1 -73 3 -79 25 -82 13 -2 24 -7 24 -11 6 -43 4 -65 -5 -65
-6 0 -18 -4 -27 -10 -13 -8 -11 -14 11 -37 14 -16 43 -37 64 -48 46 -23 53
-46 36 -120 -14 -58 -6 -76 15 -36 11 21 47 28 57 11 13 -20 -47 -139 -96
-188 -7 -8 -13 -18 -13 -24 0 -40 113 57 140 120 l17 40 52 -45 c29 -25 52
-51 53 -58 0 -6 -7 -27 -15 -47 -8 -19 -15 -39 -16 -43 -1 -4 -11 -30 -23 -58
-12 -27 -24 -61 -26 -76 -3 -14 -10 -31 -15 -38 -6 -7 -13 -28 -16 -48 -19
-111 -34 -255 -35 -323 -1 -44 -2 -101 -3 -128 -1 -26 2 -53 6 -59 16 -26 -71
-75 -202 -113 -18 -5 -21 -10 -13 -19 8 -8 28 -8 71 1 67 14 82 10 47 -14 -42
-30 -79 -72 -66 -76 19 -6 14 -29 -12 -62 -31 -39 -47 -75 -48 -113 -1 -17 -6
-33 -11 -36 -8 -6 -36 -108 -36 -134 0 -7 -4 -11 -8 -8 -5 3 -13 -13 -19 -35
-6 -21 -30 -115 -53 -207 -24 -93 -45 -175 -47 -184 -2 -9 -12 -34 -21 -56
-10 -22 -19 -60 -22 -84 -5 -45 -26 -146 -48 -227 -7 -26 -28 -63 -45 -81 -86
-88 -214 -236 -234 -270 -8 -12 -21 -39 -30 -59 -9 -20 -25 -55 -36 -76 -12
-22 -24 -56 -27 -76 -4 -21 -10 -37 -14 -37 -6 0 -19 -23 -73 -131 -8 -18 -28
-46 -44 -63 -36 -40 -59 -83 -72 -134 -8 -32 -7 -40 5 -39 8 0 18 8 22 18 10
29 55 86 68 86 7 0 8 -4 1 -13 -6 -7 -19 -48 -30 -91 -10 -44 -25 -96 -34
-116 -8 -20 -14 -39 -14 -42 1 -3 -3 -20 -9 -37 -9 -28 -18 -123 -23 -241 -1
-35 9 -148 18 -205 14 -83 10 -108 -22 -139 -15 -15 -26 -36 -26 -47 5 -84 3
-109 -14 -128 -10 -11 -32 -45 -47 -76 -20 -38 -37 -57 -52 -60 -20 -2 -112
-97 -113 -115 0 -4 -8 -21 -17 -39 -29 -56 -42 -136 -34 -210 4 -44 11 -67 19
-65 6 2 27 25 45 50 52 72 65 84 88 84 13 0 25 -11 31 -27 9 -23 6 -34 -16
-62 -14 -19 -26 -41 -26 -49 0 -9 -7 -26 -17 -39 -9 -13 -15 -36 -13 -52 2
-16 0 -33 -3 -39 -11 -17 28 -129 58 -168 32 -42 55 -39 57 5 1 41 55 141 78
145 22 4 109 -81 125 -122 18 -47 28 -117 18 -117 -6 0 -8 -5 -4 -10 3 -6 1
-32 -5 -59 -6 -28 -10 -51 -8 -53 4 -4 90 61 121 92 13 14 30 37 37 53 7 16
16 29 21 29 4 0 8 6 8 13 0 22 18 43 38 45 32 2 70 17 111 43 21 14 46 25 55
25 21 0 32 -65 16 -95 -7 -13 -10 -36 -7 -53 4 -16 2 -33 -4 -36 -5 -3 -10
-16 -10 -27 0 -19 3 -18 24 8 57 69 127 181 119 189 -2 3 -1 18 4 33 4 16 2
47 -6 72 -10 36 -10 49 1 68 8 14 25 46 38 71 14 28 25 41 28 32 3 -9 13 -25
23 -36 10 -12 22 -46 26 -77 15 -110 69 -29 73 108 3 90 -17 255 -34 286 -21
38 -15 62 34 133 26 38 59 91 74 119 15 28 36 65 47 84 11 18 26 54 32 78 23
88 25 91 32 51 3 -20 4 -41 1 -46 -7 -14 -7 -196 0 -196 3 0 3 -18 -1 -41 -5
-23 -6 -44 -3 -47 9 -9 10 -80 1 -86 -13 -8 -2 -85 26 -180 14 -48 24 -86 21
-86 -2 0 1 -9 6 -20 6 -11 14 -36 17 -55 5 -33 20 -101 45 -201 6 -22 16 -46
22 -54 6 -7 9 -16 5 -20 -3 -3 5 -38 17 -77 13 -40 25 -89 28 -109 3 -20 12
-50 21 -65 8 -16 14 -33 13 -37 -1 -5 -1 -11 1 -13 2 -8 7 -31 15 -73 4 -19
11 -44 17 -54 5 -11 12 -35 15 -54 2 -19 12 -61 22 -92 9 -32 19 -70 22 -84 8
-45 37 -126 47 -133 5 -3 9 -14 9 -26 0 -11 5 -20 12 -20 6 0 9 -6 6 -14 -3
-8 2 -30 10 -50 48 -106 98 -231 104 -257 1 -6 12 -35 25 -64 17 -39 21 -60
13 -73 -7 -13 -5 -27 10 -50 11 -18 19 -40 19 -50 0 -9 7 -22 15 -29 18 -15
122 -225 122 -246 0 -6 9 -30 21 -54 11 -23 23 -71 27 -105 3 -35 11 -69 16
-75 6 -7 12 -62 14 -122 l4 -111 -39 5 c-75 11 -86 -54 -12 -73 19 -5 40 -14
47 -21 8 -8 16 -62 20 -131 3 -65 12 -128 18 -140 10 -19 9 -20 -9 -8 -11 7
-32 9 -48 5 -43 -11 -35 -42 20 -74 40 -24 53 -41 85 -108 l38 -80 -18 -79
c-11 -44 -25 -88 -33 -97 -8 -9 -14 -28 -14 -43 0 -15 -8 -33 -17 -40 -9 -8
-14 -20 -11 -28 5 -13 -7 -49 -40 -124 -24 -53 -71 -235 -84 -326 -2 -11 -8
-33 -14 -47 -7 -14 -20 -69 -29 -121 -10 -52 -22 -99 -27 -105 -5 -6 -8 -30
-8 -53 1 -40 -12 -168 -33 -330 -6 -43 -16 -133 -22 -199 -6 -67 -17 -150 -25
-185 -8 -35 -14 -77 -14 -94 2 -59 -10 -72 -94 -111 -210 -98 -383 -120 -564
-72 -152 41 -223 53 -317 53 -127 0 -231 -32 -295 -93 -17 -16 -44 -40 -59
-54 -31 -27 -69 -95 -69 -121 0 -9 -18 -29 -39 -45 -67 -51 -120 -100 -131
-122 -7 -11 -13 -46 -16 -77 -3 -52 1 -66 53 -166 56 -107 132 -219 195 -286
18 -19 32 -38 32 -43 0 -5 22 -25 50 -44 27 -20 52 -38 55 -41 11 -13 126 -85
135 -85 5 0 17 -9 28 -21 10 -12 29 -21 42 -21 12 0 26 -3 30 -7 4 -4 13 -9
20 -10 7 -2 39 -10 71 -20 70 -20 86 -23 149 -30 27 -4 60 -9 74 -12 13 -3 45
-8 71 -10 25 -3 63 -8 84 -12 37 -8 99 -9 357 -6 77 0 171 1 206 1 36 -1 86 2
111 7 24 4 66 9 92 11 26 2 78 11 116 19 37 9 139 21 225 27 87 6 186 18 220
26 55 14 73 13 160 -2 94 -17 99 -16 135 3 21 11 52 36 69 54 16 19 40 34 52
34 11 0 24 7 27 16 3 8 12 12 19 9 20 -7 27 54 14 117 -6 30 -8 110 -5 189 7
157 34 275 101 447 23 60 43 122 43 137 0 16 7 34 15 40 8 7 18 27 22 45 4 17
20 56 36 86 25 48 96 177 99 182 1 1 30 -5 65 -12 182 -42 347 -67 488 -75 72
-4 134 -9 139 -11 4 -3 42 -8 84 -11 41 -3 92 -7 113 -9 20 -2 130 -6 245 -10
115 -3 215 -10 221 -15 6 -5 26 -12 45 -16 18 -4 37 -13 43 -20 11 -14 32
-158 38 -266 7 -112 58 -299 108 -397 38 -75 97 -163 109 -163 5 0 10 -6 10
-13 0 -17 107 -123 123 -124 7 0 17 -8 22 -18 25 -46 179 -98 276 -92 45 3
109 42 152 93 29 34 113 196 103 196 -4 0 -2 6 3 13 6 7 19 42 28 76 10 35 22
73 27 84 13 31 33 108 30 118 -1 4 7 27 17 50 11 23 23 52 27 63 4 12 17 43
29 70 12 27 25 67 29 89 4 23 12 48 16 58 15 27 71 233 93 340 5 23 17 77 27
121 20 90 26 234 14 322 -5 33 -13 89 -18 124 -38 257 -40 263 -118 336 -51
48 -52 50 -40 82 8 18 17 37 21 42 4 4 36 -25 71 -65 80 -94 107 -163 114
-290 6 -125 11 -144 33 -140 26 5 27 63 4 196 -17 95 -30 131 -70 205 -48 88
-116 164 -148 164 -11 0 -15 -8 -13 -23 2 -14 -3 -23 -14 -25 -10 -1 -29 -12
-42 -24 -30 -29 -40 -28 -40 2 0 45 -13 91 -26 91 -6 0 -35 -16 -64 -37 -81
-56 -130 -76 -204 -82 -38 -4 -102 -12 -142 -19 -116 -21 -411 -16 -480 8 -31
10 -61 18 -67 17 -6 -2 -24 10 -39 26 -23 24 -28 41 -31 98 l-3 68 -20 -34
c-16 -26 -24 -31 -35 -22 -20 17 -62 77 -46 67 7 -4 30 6 55 26 43 34 103 61
139 62 35 1 11 27 -31 32 -44 6 -54 11 -106 50 l-34 25 68 70 c37 38 68 73 68
77 0 18 148 155 216 201 40 28 122 97 181 154 59 57 125 117 147 133 21 16 56
43 76 61 21 18 59 49 84 69 71 57 199 190 232 242 9 14 31 41 49 60 18 19 48
54 67 78 19 24 48 58 64 77 35 41 36 57 5 50 -18 -4 -16 -1 8 13 37 21 91 29
184 29 78 -1 144 -12 152 -25 4 -5 17 -10 30 -10 13 0 33 -6 44 -15 27 -21 85
-21 92 0 7 16 -55 50 -143 78 -21 7 -39 16 -39 21 0 10 -25 21 -60 28 -13 2
-24 0 -24 -5 0 -4 -11 -7 -24 -6 -13 2 -30 3 -39 4 -30 2 19 22 76 32 54 8 56
8 100 -33 24 -22 48 -40 54 -40 5 0 17 -3 25 -6 9 -4 18 1 22 11 4 11 -10 33
-47 68 -43 41 -52 56 -50 80 3 25 11 31 45 39 36 9 43 7 59 -15 10 -14 17 -28
15 -32 -3 -3 5 -18 16 -33 12 -15 21 -31 21 -35 1 -20 41 -56 61 -57 35 0 36
18 3 76 -21 37 -28 61 -22 72 5 10 -1 34 -18 68 -14 29 -28 64 -30 79 -2 14
-9 58 -16 97 -10 62 -10 74 5 90 16 17 15 20 -15 42 -27 20 -30 27 -19 40 7 9
15 25 16 37 2 11 11 34 19 51 9 16 16 37 16 46 0 9 4 17 9 17 11 0 26 41 22
57 -6 26 -6 153 1 153 4 0 5 10 2 24 -2 13 0 49 6 80 9 47 7 62 -6 83 -10 14
-18 40 -19 58 -1 18 -5 47 -10 64 l-7 32 38 -40 c40 -40 73 -50 83 -24 3 8
-17 41 -45 74 -43 51 -63 93 -63 133 0 5 9 13 20 17 11 4 55 33 98 64 64 47
88 74 134 147 89 144 113 150 158 44 l28 -67 28 30 c48 51 90 123 108 183 26
87 25 277 -2 336 l-20 45 27 75 c16 41 43 113 60 159 39 99 85 279 85 328 0
19 7 49 16 66 9 17 18 70 21 118 3 47 12 110 20 139 14 47 30 361 30 556 -1
78 -20 260 -33 310 -32 118 -45 161 -74 236 -18 46 -32 90 -32 97 0 19 -30
106 -55 160 -26 58 -21 88 30 172 40 65 72 168 109 347 23 114 31 245 15 256
-6 4 -11 20 -12 34 -4 59 -12 87 -28 96 -41 23 -45 -2 -18 -122 12 -54 6 -179
-11 -223 -31 -82 -200 145 -225 302 -7 45 -28 119 -77 267 -33 102 -38 130
-40 231 -2 135 -13 311 -21 323 -3 5 -7 28 -9 53 -3 24 -7 61 -10 81 -12 78
-12 79 13 82 14 2 30 -1 37 -7 25 -19 92 -54 107 -54 22 0 26 24 7 46 -16 18
-16 18 20 0 20 -11 38 -23 40 -28 6 -14 62 -8 68 9 5 11 -8 24 -41 44 -56 33
-167 122 -201 160 -33 38 -31 95 3 64 13 -12 140 -53 163 -53 10 0 21 7 24 16
5 12 -11 24 -62 47 -76 34 -91 55 -25 38 34 -10 44 -9 52 4 11 17 -7 35 -57
57 -26 11 -35 28 -65 117 -19 57 -44 127 -56 154 -12 28 -22 58 -22 67 0 8 -9
34 -20 57 -20 40 -13 59 9 23 8 -15 13 -16 20 -5 7 11 22 9 76 -9 37 -12 72
-26 78 -31 16 -13 55 7 63 31 9 29 -17 69 -61 91 -18 10 -67 49 -108 88 -41
38 -98 86 -126 105 -76 53 -73 50 -227 191 -42 39 -96 84 -120 100 -83 56
-150 113 -160 140 -6 14 -37 54 -69 88 -32 34 -58 67 -58 74 0 6 -10 17 -21
24 -12 7 -21 18 -21 24 0 6 -12 28 -27 50 -14 21 -26 45 -26 53 0 8 -24 45
-54 83 -58 74 -181 268 -192 305 -4 13 -14 29 -21 37 -26 26 -58 101 -59 135
0 19 -10 56 -22 82 -20 43 -33 84 -46 144 -3 12 -15 45 -26 71 -11 27 -23 59
-25 72 -2 13 -12 42 -22 65 -20 46 -101 270 -101 278 0 3 -30 67 -67 142 -37
75 -69 153 -72 173 -3 20 -12 58 -21 84 -8 26 -25 78 -37 116 -20 62 -63 175
-104 275 -9 21 -25 47 -35 57 -11 9 -20 23 -20 31 0 8 -9 19 -20 24 -11 6 -25
24 -31 40 -12 31 -92 145 -221 315 -46 61 -178 202 -326 348 -237 234 -341
322 -381 319 -17 -1 -17 2 -3 35 8 19 24 46 36 58 13 15 23 44 27 82 4 32 11
67 17 77 13 25 12 135 -2 191 -7 28 -28 63 -54 91 -33 36 -39 47 -25 50 21 4
23 33 1 33 -8 0 -15 7 -15 15 0 8 -11 17 -24 20 -20 3 -20 4 5 6 39 1 37 24
-3 42 -29 12 -38 11 -86 -8 -29 -13 -55 -21 -58 -18 -2 2 13 10 33 18 25 8 38
20 38 32 0 26 -16 23 -84 -13z m-1596 -1076 c6 -12 10 -43 9 -69 l-4 -46 -50
-3 c-38 -3 -49 0 -49 12 0 8 5 17 11 19 22 7 -1 50 -36 69 -30 16 -31 18 -10
21 12 2 30 15 39 30 17 25 18 25 48 8 16 -10 35 -28 42 -41z m4620 -4589 c0
-11 -67 38 -82 60 -12 17 -2 12 32 -16 28 -22 50 -42 50 -44z m-6853 -3987 c1
-45 1 -81 0 -81 -1 0 -10 8 -19 17 -16 16 -21 13 -68 -38 l-51 -55 17 51 c10
28 21 53 26 55 4 2 8 11 8 21 0 26 38 104 54 110 27 11 32 -1 33 -80z m910
-107 c1 -12 2 -35 1 -52 l-1 -32 -22 22 c-20 20 -20 26 -9 68 12 45 26 43 31
-6z m-870 -213 c-11 -4 -10 -8 2 -22 25 -28 31 -61 13 -68 -9 -4 -16 -12 -16
-18 0 -6 -8 -19 -16 -27 -14 -14 -16 -14 -16 3 0 11 -3 31 -7 45 -4 14 -3 22
3 19 6 -4 8 8 6 29 -5 39 17 74 35 55 7 -7 6 -12 -4 -16z m6875 -141 c-7 -17
-10 -33 -7 -36 3 -3 -3 -30 -14 -60 -11 -29 -20 -63 -20 -75 0 -38 -20 -2 -26
49 -6 42 -3 58 22 103 24 44 27 57 16 79 -7 16 -17 23 -27 20 -13 -5 -13 0 -4
31 9 29 18 38 37 38 13 0 25 6 26 13 1 7 4 -19 6 -59 2 -42 -2 -86 -9 -103z
m-1356 103 c-13 -19 -40 -49 -60 -65 l-36 -31 20 32 c26 40 80 100 92 100 4 0
-3 -16 -16 -36z m59 -476 c-9 -22 -21 -55 -26 -73 -6 -18 -17 -39 -27 -47 -15
-12 -16 -10 -9 23 5 20 12 38 17 40 5 2 10 12 10 22 0 17 37 74 48 74 2 0 -3
-18 -13 -39z m-76 -168 c-9 -15 -11 -16 -12 -2 0 18 11 33 18 26 3 -2 0 -13
-6 -24z m318 6 c15 -7 27 -18 27 -24 0 -7 6 -18 13 -25 10 -11 23 -180 13
-180 -8 0 -57 115 -57 135 0 13 -4 21 -9 18 -4 -3 -9 5 -10 18 -1 12 -4 33 -7
46 -7 28 -6 28 30 12z m437 -32 c16 -18 27 -37 24 -42 -3 -6 0 -24 7 -40 7
-17 10 -39 7 -48 -5 -13 -14 -9 -44 21 -20 20 -36 34 -36 30 0 -4 -10 11 -21
34 -23 43 -28 73 -12 63 6 -3 13 -1 17 5 11 18 26 12 58 -23z m14 -854 c-4 -9
-9 -14 -12 -11 -2 2 -1 10 2 16 11 17 17 13 10 -5z"/>
<path d="M8160 9442 c-12 -56 -27 -133 -33 -170 -6 -40 -19 -79 -31 -95 -36
-44 -48 -73 -35 -86 7 -6 19 -9 27 -5 26 10 81 141 93 220 27 189 29 239 9
239 -4 0 -17 -47 -30 -103z"/>
<path d="M8333 9438 c-3 -8 -7 -41 -10 -73 -5 -61 -63 -190 -125 -280 -25 -37
-28 -48 -18 -61 17 -20 34 -6 79 65 73 114 132 345 91 358 -7 3 -15 -2 -17 -9z"/>
<path d="M8354 9021 c-3 -5 -9 -37 -12 -71 -3 -34 -13 -87 -22 -117 -8 -31
-12 -60 -9 -66 12 -19 32 -10 50 21 22 37 30 74 36 171 4 66 3 71 -17 71 -11
0 -23 -4 -26 -9z"/>
</g>
</svg>
